# xmcd
#
# Track frame offsets: 
#        150
#        14712
#        34522
#        51334
#        66118
#        76779
#        95541
#        116626
#
# Disc length: 1574 seconds
#
# Revision: 0
# Processed by: cddbd v1.5.2PL0 Copyright (c) Steve Scherf et al.
# Submitted via: ExactAudioCopy v0.99pb5
#
DISCID=62062408
DTITLE=Clide Vs Crocodiles - A Little Bird Told Me
DYEAR=1900
DGENRE=Folk
TTITLE0=When I wake
TTITLE1=Son Ansy Face
TTITLE2=No Grimace
TTITLE3=Babyaby
TTITLE4=Sreech Grackle Crackle Quack
TTITLE5=Constant Cricket Chior
TTITLE6=The Balloonist
TTITLE7=inflation
EXTD=
EXTT0=
EXTT1=
EXTT2=
EXTT3=
EXTT4=
EXTT5=
EXTT6=
EXTT7=
PLAYORDER=
